<svg xmlns="http://www.w3.org/2000/svg" viewBox="0 0 24 24" role="img" aria-labelledby="title">
  <title id="title">Discord</title>
  <path fill="#5865F2" d="M20.32 4.37A19.8 19.8 0 0 0 15.38 2.8a13.65 13.65 0 0 0-.63 1.3 18.4 18.4 0 0 0-5.5 0 13.7 13.7 0 0 0-.63-1.3 19.74 19.74 0 0 0-4.94 1.58C.55 9.04-.29 13.6.13 18.1a19.9 19.9 0 0 0 6.06 3.06c.5-.68.94-1.4 1.3-2.16a12.7 12.7 0 0 1-2.04-.98c.17-.12.33-.25.49-.38a14.25 14.25 0 0 0 12.12 0c.16.13.32.26.49.38-.65.38-1.33.71-2.04.98.37.76.8 1.48 1.3 2.16a19.9 19.9 0 0 0 6.06-3.06c.5-5.22-.85-9.74-3.56-13.73ZM8.02 15.37c-1.18 0-2.15-1.08-2.15-2.4s.95-2.4 2.15-2.4c1.21 0 2.17 1.08 2.15 2.4 0 1.32-.95 2.4-2.15 2.4Zm7.96 0c-1.18 0-2.15-1.08-2.15-2.4s.95-2.4 2.15-2.4c1.21 0 2.17 1.08 2.15 2.4 0 1.32-.94 2.4-2.15 2.4Z"/>
</svg>
